<?xml version="1.0" encoding="utf-8"?>
<!-- Generator: Adobe Illustrator 16.0.0, SVG Export Plug-In . SVG Version: 6.00 Build 0)  -->
<!DOCTYPE svg PUBLIC "-//W3C//DTD SVG 1.1//EN" "http://www.w3.org/Graphics/SVG/1.1/DTD/svg11.dtd">
<svg version="1.1" id="Layer_1" xmlns="http://www.w3.org/2000/svg" xmlns:xlink="http://www.w3.org/1999/xlink" x="0px" y="0px"
	 width="20px" height="20px" viewBox="0 0 20 20" enable-background="new 0 0 20 20" xml:space="preserve">
<g>
	<path fill-rule="evenodd" clip-rule="evenodd" d="M4.34,6.788c-0.284,0-0.551,0.001-0.819-0.001c-0.07,0-0.142-0.004-0.208-0.022
		c-0.141-0.039-0.241-0.17-0.244-0.323c-0.005-0.233-0.006-0.467,0-0.701C3.074,5.537,3.23,5.396,3.447,5.395
		c0.432-0.002,0.865-0.001,1.297-0.001c0.545,0,1.09-0.002,1.636,0.002c0.08,0,6.438,0,6.517,0c0.954-0.003,1.908-0.002,2.862-0.002
		c0.325,0,0.448,0.125,0.448,0.454c0.001,0.179,0.002,0.358,0,0.537c0,0.255-0.139,0.399-0.395,0.403
		c-0.266,0.004-0.53,0.001-0.795,0.001c-0.022,0-0.045,0.003-0.08,0.006c0,0.067,0,0.128,0,0.189c0,3.053,0,6.106-0.001,9.159
		c0,0.658-0.193,1.242-0.668,1.713c-0.28,0.279-0.618,0.418-1.019,0.417c-2.714-0.003-4.429-0.008-7.143,0.003
		c-0.605,0.003-1.043-0.252-1.377-0.73c-0.292-0.417-0.392-0.89-0.392-1.392C4.34,13.089,4.34,10.024,4.34,6.959
		C4.34,6.909,4.34,6.858,4.34,6.788z M13.543,6.798c-2.945,0-4.874,0-7.811,0c0,0.056,0,0.102,0,0.148c0,2.157,0,4.313,0,6.472
		c0,0.918,0,1.838-0.001,2.756c0,0.213,0.054,0.407,0.162,0.588c0.049,0.083,0.109,0.125,0.215,0.125
		c2.687-0.004,4.374-0.004,7.06,0c0.101,0,0.162-0.037,0.209-0.115c0.116-0.191,0.168-0.398,0.167-0.623
		c-0.001-3.075-0.001-6.151-0.001-9.228C13.543,6.883,13.543,6.844,13.543,6.798z"/>
	<path fill-rule="evenodd" clip-rule="evenodd" d="M8.997,11.844c0,0.938,0,1.877,0,2.814c0,0.292-0.135,0.426-0.431,0.426
		c-0.187,0.001-0.374,0.002-0.561,0C7.756,15.08,7.611,14.94,7.61,14.692c-0.001-1.903-0.001-3.808,0-5.712
		c0-0.253,0.137-0.389,0.39-0.393c0.199-0.003,0.397-0.003,0.596,0c0.265,0.003,0.4,0.141,0.401,0.405
		C8.997,9.943,8.997,10.893,8.997,11.844z"/>
	<path fill-rule="evenodd" clip-rule="evenodd" d="M11.684,11.844c0,0.938,0.001,1.877,0,2.814c0,0.292-0.135,0.426-0.431,0.426
		c-0.187,0.001-0.374,0.002-0.561,0c-0.249-0.004-0.394-0.144-0.395-0.392c-0.001-1.903-0.001-3.808,0-5.712
		c0-0.253,0.137-0.389,0.39-0.393c0.199-0.003,0.397-0.003,0.596,0c0.266,0.003,0.4,0.141,0.4,0.405
		C11.685,9.943,11.684,10.893,11.684,11.844z"/>
	<path fill-rule="evenodd" clip-rule="evenodd" d="M4.453,2.963c0,0.938,0,1.876,0,2.815c0,0.292-0.135,0.425-0.431,0.426
		c-0.187,0-0.374,0.002-0.561,0C3.212,6.201,3.067,6.061,3.066,5.813c-0.001-1.904-0.001-1.238,0-3.142
		c0-0.253,0.137-0.389,0.39-0.393c0.199-0.003,0.397-0.002,0.596,0c0.265,0.003,0.4,0.141,0.401,0.406
		C4.453,3.634,4.453,2.013,4.453,2.963z"/>
	<path fill-rule="evenodd" clip-rule="evenodd" d="M15.123,3.663c-0.939,0-10.692,0-11.63,0c-0.292,0-0.425-0.135-0.426-0.431
		c0-0.187-0.002-0.374,0-0.561c0.003-0.25,0.144-0.394,0.392-0.395c1.904-0.001,10.052-0.001,11.957,0
		c0.253,0,0.389,0.137,0.393,0.39c0.003,0.198,0.003,0.397,0,0.596c-0.003,0.265-0.141,0.4-0.405,0.4
		C14.452,3.663,16.072,3.663,15.123,3.663z"/>
	<path fill-rule="evenodd" clip-rule="evenodd" d="M16.208,2.963c0,0.938,0,1.876,0,2.815c0,0.292-0.136,0.425-0.431,0.426
		c-0.188,0-0.374,0.002-0.561,0c-0.25-0.003-0.395-0.144-0.395-0.392c-0.002-1.904-0.002-1.238,0-3.142
		c0-0.253,0.137-0.389,0.389-0.393c0.199-0.003,0.397-0.002,0.596,0c0.266,0.003,0.4,0.141,0.401,0.406
		C16.208,3.634,16.208,2.013,16.208,2.963z"/>
</g>
</svg>
