<?xml version="1.0" encoding="utf-8"?>
<!-- Generator: Adobe Illustrator 16.0.0, SVG Export Plug-In . SVG Version: 6.00 Build 0)  -->
<!DOCTYPE svg PUBLIC "-//W3C//DTD SVG 1.1//EN" "http://www.w3.org/Graphics/SVG/1.1/DTD/svg11.dtd">
<svg version="1.1" id="Layer_1" xmlns="http://www.w3.org/2000/svg" xmlns:xlink="http://www.w3.org/1999/xlink" x="0px" y="0px"
	 width="20px" height="20px" viewBox="0 0 20 20" enable-background="new 0 0 20 20" xml:space="preserve">
<g>
	<path fill-rule="evenodd" clip-rule="evenodd" d="M11.447,11.844c0,1.643,0,3.289,0,4.932c-3.106,0-5.202,0-8.301,0
		c0-3.107,0-6.207,0-9.315c0.074,0,0.137,0,0.199,0c1.005,0,2.01,0,3.015,0c0.505,0,0.772-0.265,0.773-0.768
		c0-1.016,0-2.031,0-3.046c0-0.06,0-0.119,0-0.178c1.786,0,2.545,0,4.313,0c0,1.16,0,2.313,0,3.472
		c0.422-0.422,0.865-0.865,1.347-1.347c0-0.918,0.001-1.836,0-2.754c0-0.439-0.271-0.714-0.707-0.714c-2.208,0-3.416,0-5.623-0.002
		c-0.196,0-0.353,0.07-0.488,0.204C4.651,3.652,3.325,4.978,2,6.303C1.865,6.438,1.795,6.595,1.795,6.79
		c0.002,3.546,0.002,7.092,0,10.638c0,0.358,0.202,0.559,0.5,0.694c3.667,0,6.333,0,10,0c0.12-0.085,0.272-0.149,0.352-0.263
		c0.085-0.125,0.141-0.296,0.141-0.447c0.005-2.304,0.003-4.607,0.003-6.912C12.332,10.959,11.887,11.404,11.447,11.844z
		 M5.789,4.479c0,0.52,0,1.075,0,1.638c-0.563,0-1.118,0-1.637,0C4.696,5.573,5.251,5.017,5.789,4.479z"/>
	<path fill-rule="evenodd" clip-rule="evenodd" fill="none" stroke="#000000" stroke-width="1.5" stroke-miterlimit="10" d="
		M14.764,4.547c-0.016,0.011-0.027,0.019-0.038,0.03C11.613,7.69,10,9.304,6.89,12.422c-0.064,0.063-0.11,0.177-0.11,0.268
		c-0.009,0.699-0.005,1.396-0.004,2.096c0,0.058,0.009,0.114,0.015,0.191c0.092,0,0.171,0,0.252,0c0.655,0,1.308-0.006,1.96,0.002
		c0.162,0.002,0.274-0.043,0.388-0.159c3.058-3.063,4.621-4.623,7.681-7.684c0.051-0.049,0.098-0.104,0.137-0.146
		C16.387,6.167,15.578,5.36,14.764,4.547z"/>
</g>
</svg>
