<?xml version="1.0" encoding="utf-8"?>
<!-- Generator: Adobe Illustrator 16.0.0, SVG Export Plug-In . SVG Version: 6.00 Build 0)  -->
<!DOCTYPE svg PUBLIC "-//W3C//DTD SVG 1.1//EN" "http://www.w3.org/Graphics/SVG/1.1/DTD/svg11.dtd">
<svg version="1.1" id="Layer_1" xmlns="http://www.w3.org/2000/svg" xmlns:xlink="http://www.w3.org/1999/xlink" x="0px" y="0px"
	 width="23px" height="23px" viewBox="0 0 23 23" enable-background="new 0 0 23 23" xml:space="preserve">
<g>
	<path fill="#231F20" d="M22.917,6.805v13.666c0,1.352-1.097,2.446-2.446,2.446H2.53c-1.351,0-2.447-1.097-2.447-2.446V2.53
		c0-1.351,1.097-2.447,2.447-2.447h13.666c0.558,0,1.334,0.321,1.729,0.717l4.277,4.275C22.598,5.471,22.917,6.246,22.917,6.805z
		 M20.846,20.526V6.742c0-0.074-0.041-0.174-0.094-0.227l-4.155-4.154v5.315c0,0.704-0.569,1.275-1.274,1.275H5.978
		c-0.704,0-1.274-0.571-1.274-1.275V2.155H2.474c-0.176,0-0.319,0.143-0.319,0.319v18.053c0,0.177,0.143,0.319,0.319,0.319h18.053
		C20.702,20.846,20.846,20.703,20.846,20.526z M15.984,14.764c0,2.471-2.01,4.484-4.483,4.484c-2.476,0-4.486-2.014-4.486-4.484
		c0-2.475,2.011-4.486,4.486-4.486C13.975,10.277,15.984,12.289,15.984,14.764z M7.083,2.188v4.688h7.188V2.188H7.083z
		 M13.539,14.764c0-1.127-0.915-2.039-2.038-2.039c-1.124,0-2.039,0.912-2.039,2.039c0,1.125,0.915,2.038,2.039,2.038
		C12.624,16.802,13.539,15.889,13.539,14.764z"/>
</g>
</svg>
