<?xml version="1.0" encoding="utf-8"?>
<!-- Generator: Adobe Illustrator 16.0.0, SVG Export Plug-In . SVG Version: 6.00 Build 0)  -->
<!DOCTYPE svg PUBLIC "-//W3C//DTD SVG 1.1//EN" "http://www.w3.org/Graphics/SVG/1.1/DTD/svg11.dtd">
<svg version="1.1" id="Layer_1" xmlns="http://www.w3.org/2000/svg" xmlns:xlink="http://www.w3.org/1999/xlink" x="0px" y="0px"
	 width="20px" height="20px" viewBox="0 0 20 20" enable-background="new 0 0 20 20" xml:space="preserve">
<g>
	<path fill-rule="evenodd" clip-rule="evenodd" d="M18.388,10.582c-1.764-2.704-4.114-4.565-7.41-4.904
		c-4.146-0.426-7.19,1.436-9.436,4.805c-0.075,0.112-0.143,0.23-0.216,0.344c-0.287,0.447-0.684,0.582-1.058,0.357
		c-0.37-0.221-0.436-0.584-0.163-1.054c1.071-1.85,2.488-3.372,4.347-4.444C9.47,2.791,15.617,4.195,19.021,9.038
		c1.231,1.751,1.218,1.393-0.012,3.136c-1.857,2.633-4.398,4.297-7.607,4.73c-3.743,0.506-6.909-0.766-9.526-3.452
		c-0.333-0.341-0.327-0.749-0.037-1.038c0.31-0.306,0.74-0.274,1.115,0.117c1.206,1.257,2.624,2.176,4.295,2.674
		c4.07,1.213,8.383-0.449,10.845-4.162C18.188,10.902,18.276,10.758,18.388,10.582z"/>
	<path fill-rule="evenodd" clip-rule="evenodd" d="M10.001,6.521C12.28,6.574,14.053,8.412,14,10.667
		c-0.054,2.304-1.907,4.075-4.194,4.009c-2.271-0.066-4.043-1.93-3.97-4.176C5.91,8.213,7.738,6.467,10.001,6.521z M9.932,8.119
		c-1.325-0.013-2.504,1.157-2.501,2.483c0.002,1.297,1.138,2.45,2.445,2.484c1.304,0.034,2.509-1.137,2.532-2.459
		C12.432,9.311,11.267,8.132,9.932,8.119z"/>
</g>
</svg>
